<?xml version="1.0" standalone="no"?><!DOCTYPE svg PUBLIC "-//W3C//DTD SVG 1.1//EN" "http://www.w3.org/Graphics/SVG/1.1/DTD/svg11.dtd"><svg t="1649134706299" class="icon" viewBox="0 0 1024 1024" version="1.1" xmlns="http://www.w3.org/2000/svg" p-id="11613" xmlns:xlink="http://www.w3.org/1999/xlink" width="128" height="128"><defs><style type="text/css">@font-face { font-family: feedback-iconfont; src: url("//at.alicdn.com/t/font_1031158_u69w8yhxdu.woff2?t=1630033759944") format("woff2"), url("//at.alicdn.com/t/font_1031158_u69w8yhxdu.woff?t=1630033759944") format("woff"), url("//at.alicdn.com/t/font_1031158_u69w8yhxdu.ttf?t=1630033759944") format("truetype"); }
</style></defs><path d="M913.212778 864.677365l0-66.940598 16.738219 0 0 66.940598L913.212778 864.677365 913.212778 864.677365 913.212778 864.677365zM913.212778 764.263397l0-66.946738 16.738219 0 0 66.946738L913.212778 764.263397 913.212778 764.263397 913.212778 764.263397zM913.212778 596.903715l16.738219 0 0 66.946738L913.212778 663.850453 913.212778 596.903715 913.212778 596.903715 913.212778 596.903715zM913.212778 496.487701l16.738219 0 0 66.942645L913.212778 563.430346 913.212778 496.487701 913.212778 496.487701 913.212778 496.487701zM913.212778 396.068617 913.212778 396.068617l16.738219 0 0 66.940598L913.212778 463.009216 913.212778 396.068617 913.212778 396.068617 913.212778 396.068617zM913.212778 295.65465l16.738219 0 0 66.940598L913.212778 362.595248 913.212778 295.65465 913.212778 295.65465 913.212778 295.65465zM913.212778 195.234543 913.212778 195.234543l16.738219 0 0 66.946738L913.212778 262.181281 913.212778 195.234543 913.212778 195.234543 913.212778 195.234543zM913.212778 94.820576l16.738219 0 0 66.940598L913.212778 161.761174 913.212778 94.820576 913.212778 94.820576 913.212778 94.820576zM829.525774 94.820576l66.946738 0 0 16.739243-66.946738 0L829.525774 94.820576 829.525774 94.820576 829.525774 94.820576zM729.111806 94.820576l66.946738 0 0 16.739243-66.946738 0L729.111806 94.820576 729.111806 94.820576 729.111806 94.820576zM628.697839 94.820576l66.940598 0 0 16.739243-66.940598 0L628.697839 94.820576 628.697839 94.820576 628.697839 94.820576zM528.283872 94.820576l66.940598 0 0 16.739243-66.940598 0L528.283872 94.820576 528.283872 94.820576 528.283872 94.820576zM427.862741 94.820576l66.947761 0 0 16.739243-66.947761 0L427.862741 94.820576 427.862741 94.820576 427.862741 94.820576zM327.448774 94.820576l66.946738 0 0 16.739243-66.946738 0L327.448774 94.820576 327.448774 94.820576 327.448774 94.820576zM227.02969 94.820576l66.946738 0 0 16.739243-66.946738 0L227.02969 94.820576 227.02969 94.820576 227.02969 94.820576zM126.615723 94.820576l66.940598 0 0 16.739243-66.940598 0L126.615723 94.820576 126.615723 94.820576 126.615723 94.820576zM126.615723 931.624103l-33.473369 0 0-33.473369 16.738219 0 0 16.739243 16.734126 0L126.614699 931.624103 126.615723 931.624103 126.615723 931.624103zM93.142353 797.736766l16.738219 0 0 66.940598-16.738219 0L93.142353 797.736766 93.142353 797.736766 93.142353 797.736766zM93.142353 697.317683l16.738219 0 0 66.946738-16.738219 0L93.142353 697.317683 93.142353 697.317683 93.142353 697.317683zM93.142353 596.903715l16.738219 0 0 66.946738-16.738219 0L93.142353 596.903715 93.142353 596.903715 93.142353 596.903715zM93.142353 496.487701l16.738219 0 0 66.942645-16.738219 0L93.142353 496.487701 93.142353 496.487701 93.142353 496.487701zM93.142353 396.068617l16.738219 0 0 66.940598-16.738219 0L93.142353 396.068617 93.142353 396.068617 93.142353 396.068617zM93.142353 295.65465l16.738219 0 0 66.940598-16.738219 0L93.142353 295.65465 93.142353 295.65465 93.142353 295.65465zM93.142353 195.234543 93.142353 195.234543l16.738219 0 0 66.946738-16.738219 0L93.142353 195.234543 93.142353 195.234543 93.142353 195.234543zM93.142353 94.820576l16.738219 0 0 66.940598-16.738219 0L93.142353 94.820576 93.142353 94.820576 93.142353 94.820576zM227.02969 931.624103l-66.940598 0L160.089092 914.889977l66.940598 0L227.02969 931.624103 227.02969 931.624103 227.02969 931.624103zM327.448774 931.624103l-66.940598 0L260.508175 914.889977l66.940598 0L327.448774 931.624103 327.448774 931.624103 327.448774 931.624103zM486.442928 345.862145l50.207495 0 0 142.259004 142.259004 0 0 50.207495L536.650423 538.328645l0 142.253888L486.442928 680.582533 486.442928 538.329668 344.1829 538.329668l0-50.207495L486.442928 488.122173 486.442928 345.862145 486.442928 345.862145 486.442928 345.862145zM427.862741 931.624103l-66.940598 0L360.922143 914.889977l66.940598 0L427.862741 931.624103 427.862741 931.624103 427.862741 931.624103zM528.283872 931.624103l-66.946738 0L461.337133 914.889977l66.946738 0L528.283872 931.624103 528.283872 931.624103 528.283872 931.624103zM628.697839 931.624103l-66.940598 0L561.757241 914.889977l66.940598 0L628.697839 931.624103 628.697839 931.624103 628.697839 931.624103zM729.111806 931.624103l-66.940598 0L662.171208 914.889977l66.940598 0L729.111806 931.624103 729.111806 931.624103 729.111806 931.624103zM829.525774 931.624103l-66.940598 0L762.585175 914.889977l66.940598 0L829.525774 931.624103 829.525774 931.624103 829.525774 931.624103zM913.212778 898.150734l16.738219 0 0 33.473369-66.946738 0L863.004259 914.889977l50.207495 0L913.211754 898.150734 913.212778 898.150734 913.212778 898.150734zM913.212778 898.150734" p-id="11614" fill="#87a7d6"></path></svg>