<svg xmlns="http://www.w3.org/2000/svg" xmlns:xlink="http://www.w3.org/1999/xlink" width="40" height="40" viewBox="0 0 40 40" fill="none"><g opacity="1"  transform="translate(0 0)  rotate(0)"><path id="矩形" fill-rule="evenodd" style="fill:#000000" opacity="0" d="M0 40L40 40L40 0L0 0L0 40Z"></path><path id="形状" fill-rule="evenodd" fill="url(#linear_0)" opacity="1" d="M18.8876,0.42281c1,-0.56 2.22,-0.56 3.23,0l14.92,8.24c1.06,0.59 1.72,1.69999 1.72,2.91999v16.36c0,1.22 -0.66,2.34 -1.72,2.92l-14.92,8.25c-1.01,0.55 -2.23,0.55 -3.23,0l-14.92004,-8.24c-1.06,-0.59 -1.72,-1.71 -1.72,-2.93v-16.36c0,-1.21 0.66,-2.32999 1.72,-2.91999zM8.52875,14.5c0.13,0.42 0.41,0.78 0.8,1l9.50995,5.25v10.47c0,0.92 0.7401,1.67 1.66,1.67c0.9201,0 1.6701,-0.75 1.6701,-1.67v-10.47l9.5099,-5.26c0.77,-0.46 1.03,-1.45 0.6,-2.23c-0.4399,-0.79 -1.41,-1.09 -2.2099,-0.68l-9.5701,5.28l-9.5599,-5.28c-0.8,-0.45 -1.82005,-0.15 -2.26005,0.65c-0.21,0.39 -0.27,0.84 -0.15,1.27z"></path></g><defs><linearGradient id="linear_0" x1="50%" y1="0%" x2="51%" y2="96.80833082932693%" gradientUnits="objectBoundingBox"><stop offset="0" stop-color="#E896F4" stop-opacity="1" /><stop offset="1" stop-color="#C861F4" stop-opacity="1" /></linearGradient></defs></svg>