<svg xmlns="http://www.w3.org/2000/svg" xmlns:xlink="http://www.w3.org/1999/xlink" width="72" height="74.5" viewBox="0 0 72 74.5" fill="none"><g opacity="1"  transform="translate(0 0)  rotate(0)"><path id="椭圆形" fill-rule="evenodd" fill="url(#linear_0)" opacity="1" d="M72 36C72 16.12 55.88 0 36 0C16.12 0 0 16.12 0 36C0 55.88 16.12 72 36 72C55.88 72 72 55.88 72 36Z"></path><g id="矩形" filter="url(#filter_3)"><path id="矩形" fill-rule="evenodd" style="fill:#24B67C" opacity="0.87" d="M21 58.5L51 58.5L51 54L21 54L21 58.5Z"></path></g><g opacity="1"  transform="translate(16 16)  rotate(0)"><path id="矩形" fill-rule="evenodd" style="fill:#000000" opacity="0" d="M0 40L40 40L40 0L0 0L0 40Z"></path><path id="路径" fill-rule="evenodd" fill="url(#linear_1)" opacity="1" d="M32.3365 13.6634C32.3365 6.86337 26.7965 1.33337 19.9965 1.33337C13.1965 1.33337 7.6665 6.86337 7.6665 13.6634C7.6665 14.4034 8.2665 15.0034 8.9965 15.0034C9.7365 15.0034 10.3365 14.4034 10.3365 13.6634C10.3365 8.33337 14.6665 4.00337 19.9965 4.00337C25.3365 4.00337 29.6665 8.33337 29.6665 13.6634C29.6665 14.4034 30.2665 15.0034 30.9965 15.0034C31.7365 15.0034 32.3365 14.4034 32.3365 13.6634Z"></path><path id="形状" fill-rule="evenodd" fill="url(#linear_2)" opacity="1" d="M5.3335,14.7967c0,-2.73 2.2,-4.93 4.93,-4.93v9.87c-2.73,0 -4.93,-2.2 -4.93,-4.94zM29.8003,9.8667c2.73,0 4.93,2.2 4.93,4.93c0,2.74 -2.2,4.94 -4.93,4.94z"></path><path id="路径" fill-rule="evenodd" fill="url(#linear_3)" opacity="1" d="M28.4666 14.47C28.4666 9.8 24.6666 6 19.9966 6C15.3366 6 11.5366 9.8 11.5366 14.47C11.5366 17.47 13.1366 20.07 15.4666 21.6C8.4666 23.6 3.2666 30 3.2666 37.67C3.2666 38.2 3.7366 38.67 4.2666 38.67L35.7366 38.67C36.2666 38.67 36.7366 38.2 36.7366 37.67C36.7366 30.07 31.5366 23.6 24.5366 21.6C26.8666 20.07 28.4666 17.47 28.4666 14.47Z"></path></g></g><defs><linearGradient id="linear_0" x1="50%" y1="0%" x2="51%" y2="100%" gradientUnits="objectBoundingBox"><stop offset="0" stop-color="#EBFFF2" stop-opacity="1" /><stop offset="1" stop-color="#D9FEE7" stop-opacity="1" /></linearGradient><filter id="filter_3" x="13" y="46" width="46" height="20.5" filterUnits="userSpaceOnUse" color-interpolation-filters="sRGB"><feFlood flood-opacity="0" result="BackgroundImageFix"/>
          <feBlend mode="normal" in="SourceGraphic" in2="BackgroundImageFix" result="shape"/>
          <feGaussianBlur stdDeviation="4" result="effect1_foregroundBlur" /></filter><linearGradient id="linear_1" x1="50%" y1="0%" x2="51%" y2="100%" gradientUnits="objectBoundingBox"><stop offset="0" stop-color="#97FAC7" stop-opacity="1" /><stop offset="1" stop-color="#15C884" stop-opacity="1" /></linearGradient><linearGradient id="linear_2" x1="50%" y1="0%" x2="51%" y2="100%" gradientUnits="objectBoundingBox"><stop offset="0" stop-color="#97FAC7" stop-opacity="1" /><stop offset="1" stop-color="#15C884" stop-opacity="1" /></linearGradient><linearGradient id="linear_3" x1="50%" y1="0%" x2="51%" y2="100%" gradientUnits="objectBoundingBox"><stop offset="0" stop-color="#97FAC7" stop-opacity="1" /><stop offset="1" stop-color="#15C884" stop-opacity="1" /></linearGradient></defs></svg>