<svg xmlns="http://www.w3.org/2000/svg" xmlns:xlink="http://www.w3.org/1999/xlink" width="72" height="72" viewBox="0 0 72 72" fill="none"><g opacity="1"  transform="translate(0 0)  rotate(0)"><path id="椭圆形" fill-rule="evenodd" fill="url(#linear_0)" opacity="1" d="M72 36C72 16.12 55.88 0 36 0C16.12 0 0 16.12 0 36C0 55.88 16.12 72 36 72C55.88 72 72 55.88 72 36Z"></path><g id="矩形" filter="url(#filter_3)"><path id="矩形" fill-rule="evenodd" style="fill:#9E16D7" opacity="0.65" d="M21 54.5L51 54.5L51 50L21 50L21 54.5Z"></path></g><g opacity="1"  transform="translate(18 19)  rotate(0)"><path id="矩形" fill-rule="evenodd" style="fill:#000000" opacity="0" d="M0 36L36 36L36 0L0 0L0 36Z"></path><path id="路径" fill-rule="evenodd" fill="url(#linear_1)" opacity="1" d="M35.2719 29.732L35.2719 25.182C35.2719 23.912 34.2319 22.882 32.9619 22.882L30.6619 22.882L30.6619 17.162C30.6619 16.522 30.1519 16.012 29.5219 16.012L19.1519 16.012L19.1519 11.432L21.4519 11.432C22.7219 11.432 23.7619 10.412 23.7619 9.13198L23.7619 4.58198C23.7619 3.31198 22.7219 2.28198 21.4519 2.28198L14.5419 2.28198C13.2719 2.28198 12.2419 3.31198 12.2419 4.58198L12.2419 9.13198C12.2419 10.412 13.2719 11.432 14.5419 11.432L16.8519 11.432L16.8519 16.012L6.48193 16.012C5.85193 16.012 5.33193 16.522 5.33193 17.162L5.33193 22.882L3.03193 22.882C1.76193 22.882 0.731934 23.912 0.731934 25.182L0.731934 29.732C0.731934 31.002 1.76193 32.042 3.03193 32.042L9.94193 32.042C11.2119 32.042 12.2419 31.002 12.2419 29.732L12.2419 25.182C12.2419 23.912 11.2119 22.882 9.94193 22.882L7.64193 22.882L7.64193 18.302L28.3619 18.302L28.3619 22.882L26.0619 22.882C24.7819 22.882 23.7619 23.912 23.7619 25.182L23.7619 29.732C23.7619 31.002 24.7819 32.042 26.0619 32.042L32.9619 32.042C34.2319 32.042 35.2719 31.002 35.2719 29.732Z"></path></g></g><defs><linearGradient id="linear_0" x1="50%" y1="0%" x2="51%" y2="100%" gradientUnits="objectBoundingBox"><stop offset="0" stop-color="#FCF6FE" stop-opacity="1" /><stop offset="1" stop-color="#F6E5FF" stop-opacity="1" /></linearGradient><filter id="filter_3" x="13" y="42" width="46" height="20.5" filterUnits="userSpaceOnUse" color-interpolation-filters="sRGB"><feFlood flood-opacity="0" result="BackgroundImageFix"/>
          <feBlend mode="normal" in="SourceGraphic" in2="BackgroundImageFix" result="shape"/>
          <feGaussianBlur stdDeviation="4" result="effect1_foregroundBlur" /></filter><linearGradient id="linear_1" x1="50%" y1="0%" x2="51%" y2="96.80833082932693%" gradientUnits="objectBoundingBox"><stop offset="0" stop-color="#E896F4" stop-opacity="1" /><stop offset="1" stop-color="#C861F4" stop-opacity="1" /></linearGradient></defs></svg>