<svg xmlns="http://www.w3.org/2000/svg" xmlns:xlink="http://www.w3.org/1999/xlink" width="40" height="40" viewBox="0 0 40 40" fill="none"><g opacity="1"  transform="translate(0 0)  rotate(0)"><path id="矩形" fill-rule="evenodd" style="fill:#000000" opacity="0" d="M0 40L40 40L40 0L0 0L0 40Z"></path><path id="形状" fill-rule="evenodd" fill="url(#linear_0)" opacity="1" d="M22.3839,4.95521c0.47,0.19 0.78,0.65 0.78,1.17v27.74999c0,0.7 -0.57,1.27 -1.26,1.27c-0.34,0 -0.65,-0.13 -0.89,-0.36l-8.15,-7.97h-5.34995c-1.64,0 -2.97,-1.33 -2.97,-2.97v-7.52c0,-1.64 1.33,-2.97 2.97,-2.97h5.34995l8.14,-8.12999c0.36,-0.36 0.91,-0.47 1.38,-0.27zM27.2135,12.4548c2.04,1.99 3.19,4.72 3.21,7.57c0.02,2.85 -1.11,5.59 -3.12,7.6c-0.22,0.22 -0.5,0.34 -0.8,0.34c-0.46,0 -0.87,-0.28 -1.04,-0.7c-0.18,-0.42 -0.08,-0.91 0.24,-1.23c1.59,-1.59 2.47,-3.75 2.46,-6c-0.01,-2.24 -0.92,-4.39 -2.53,-5.96c-0.45,-0.44 -0.45,-1.15 -0.02,-1.6c0.44,-0.45 1.15,-0.45 1.6,-0.02z"></path><path id="路径" fill-rule="evenodd" fill="url(#linear_1)" opacity="1" d="M29.1271 8.88163C28.6971 9.32163 28.6971 10.0316 29.1371 10.4716C31.7471 13.0216 33.1871 16.4416 33.1871 20.0816C33.1871 23.7316 31.7571 27.1416 29.1471 29.6916C28.8171 30.0116 28.7171 30.5016 28.8971 30.9216C29.0671 31.3516 29.4771 31.6316 29.9371 31.6316C30.2371 31.6316 30.5171 31.5116 30.7271 31.3116C33.7571 28.3516 35.4571 24.3016 35.4571 20.0816C35.4571 15.8516 33.7471 11.8016 30.7171 8.85163C30.2671 8.42163 29.5571 8.44163 29.1271 8.88163Z"></path></g><defs><linearGradient id="linear_0" x1="50.00000000000071%" y1="-26.14514320712331%" x2="50%" y2="100%" gradientUnits="objectBoundingBox"><stop offset="0" stop-color="#FFBCC0" stop-opacity="1" /><stop offset="1" stop-color="#FB3F5B" stop-opacity="1" /></linearGradient><linearGradient id="linear_1" x1="50.00000000000071%" y1="-26.14514320712331%" x2="50%" y2="100%" gradientUnits="objectBoundingBox"><stop offset="0" stop-color="#FFBCC0" stop-opacity="1" /><stop offset="1" stop-color="#FB3F5B" stop-opacity="1" /></linearGradient></defs></svg>