<svg xmlns="http://www.w3.org/2000/svg" xmlns:xlink="http://www.w3.org/1999/xlink" width="72" height="72" viewBox="0 0 72 72" fill="none"><g opacity="1"  transform="translate(0 0)  rotate(0)"><path id="椭圆形" fill-rule="evenodd" fill="url(#linear_0)" opacity="1" d="M72 36C72 16.12 55.88 0 36 0C16.12 0 0 16.12 0 36C0 55.88 16.12 72 36 72C55.88 72 72 55.88 72 36Z"></path><g opacity="1"  transform="translate(16 16)  rotate(0)"><path id="矩形" fill-rule="evenodd" style="fill:#000000" opacity="0" d="M0 40L40 40L40 0L0 0L0 40Z"></path><path id="形状" fill-rule="evenodd" fill="url(#linear_1)" opacity="1" d="M31.8342,4c1.23,0 2.22,1 2.22,2.22l2,27.56c0,1.22 -0.99,2.22 -2.22,2.22h-27.56c-1.22,0 -2.22,-1 -2.22,-2.22l2,-27.56c0,-1.23 1,-2.22 2.22,-2.22zM30.067,13.4259c0,-0.99 -0.8,-1.79 -1.79,-1.79c-0.99,0 -1.79,0.8 -1.79,1.79c0,0.53 0.24,1.02 0.64,1.35c-0.03,3.84 -3.15,6.94 -6.99,6.94c-3.85,0 -6.98,-3.12 -7,-6.97c0.38,-0.33 0.6,-0.81 0.6,-1.32c0,-0.99 -0.8,-1.79 -1.79,-1.79c-0.84,-0.01 -1.57,0.57 -1.75,1.38c-0.19,0.81 0.21,1.65 0.97,2.01c0.16,4.82 4.11,8.69 8.97,8.69c4.87,0 8.82,-3.89 8.97,-8.73c0.58,-0.3 0.96,-0.9 0.96,-1.56z"></path></g></g><defs><linearGradient id="linear_0" x1="50%" y1="0%" x2="51%" y2="100%" gradientUnits="objectBoundingBox"><stop offset="0" stop-color="#FFF9F9" stop-opacity="1" /><stop offset="1" stop-color="#FFECEC" stop-opacity="1" /></linearGradient><linearGradient id="linear_1" x1="50.00000000000071%" y1="-26.14514320712331%" x2="50%" y2="100%" gradientUnits="objectBoundingBox"><stop offset="0" stop-color="#FFBCC0" stop-opacity="1" /><stop offset="1" stop-color="#FB3F5B" stop-opacity="1" /></linearGradient></defs></svg>