<svg xmlns="http://www.w3.org/2000/svg" xmlns:xlink="http://www.w3.org/1999/xlink" width="40" height="40" viewBox="0 0 40 40" fill="none"><g opacity="1"  transform="translate(0 0)  rotate(0)"><path id="矩形" fill-rule="evenodd" style="fill:#000000" opacity="0" d="M0 40L40 40L40 0L0 0L0 40Z"></path><path id="形状" fill-rule="evenodd" fill="url(#linear_0)" opacity="1" d="M11.2673,14.0037c-0.6,-0.27 -0.93,-1 -0.67,-1.6c0.07,-0.27 0.2,-0.4 0.34,-0.54l6.46,-4.85995c1.8,-1.34 4.14,-1.67 6.2,-0.87l10.34,3.86995c0.66,0.26 1.4,0.4 2.06,0.4h1.74c0.46,0 0.93,0.4 0.93,0.86v12.6c0,0.47 -0.4,0.94 -0.93,0.94h-2.27c-0.33,0 -0.67,0.13 -0.87,0.33l-0.46,0.4c-0.14,0.13 -0.34,0.07 -0.4,-0.07l-12.07,-14.53c-0.33,-0.4 -0.87,-0.47 -1.27,-0.2l-5.53,3.07c-1.13,0.6 -2.4,0.66 -3.6,0.2zM5.8035,23.066l-1.4,1.67h-1.94c-0.53,0 -0.93,-0.4 -1.13,-0.87v-12.53c0,-0.47 0.4,-0.87 0.93,-0.8l6.6,0.06c0.27,0.14 0.34,0.4 0.2,0.6c-0.46,0.8 -0.6,1.74 -0.33,2.67c0.33,0.87 1,1.53 1.93,1.87c1.6,0.6 3.4,0.4 4.94,-0.4l4.73,-2.6c0.13,-0.07 0.27,-0.07 0.4,0.06l9.87,11.87l1.26,1.4c0.07,0.13 0.14,0.2 0.2,0.33c0.6,0.94 0.27,2.2 -0.66,2.74c-0.74,0.4 -1.74,0.33 -2.4,-0.34l-0.2,-0.13c0.13,0.73 -0.2,1.53 -0.87,2c-0.87,0.53 -1.93,0.4 -2.8,-0.33c0.13,0.73 -0.13,1.53 -0.8,2c-0.8,0.53 -1.93,0.4 -2.6,-0.27l-0.2,-0.06c0.07,0.53 0,1.06 -0.33,1.53c-0.67,0.86 -1.87,1.06 -2.8,0.46v-0.06l0.2,-0.34c0.86,-1.33 0.66,-3.13 -0.47,-4.26c-0.53,-0.54 -1.2,-0.87 -1.93,-1c-0.4,-0.8 -1.14,-1.34 -2,-1.6c-0.34,-1.2 -1.2,-2.07 -2.4,-2.4c-0.2,-0.67 -0.6,-1.27 -1.14,-1.74c-1.46,-1.2 -3.66,-1 -4.86,0.47zM9.2701,23.8047c0.8,0.46 1.06,1.46 0.53,2.26c0,0 -0.07,0.2 0.13,0.14c0.47,-0.21 1,-0.27 1.47,-0.07c0.87,0.4 1.27,1.33 0.93,2.2c0,0 -0.06,0.27 0.2,0.2c0.2,-0.07 0.47,-0.13 0.67,-0.13c0.93,0.13 1.67,0.86 1.6,1.8v0.06c0,0 0,0.07 0.07,0.07c0.66,-0.2 1.4,-0.13 1.86,0.33c0.67,0.54 0.74,1.4 0.34,2.14l-0.2,0.39c0,0 -0.07,0.14 -0.14,0.2c-0.6,0.8 -1.66,0.87 -2.4,0.34l-0.06,-0.07c-0.34,-0.27 -0.6,-0.66 -0.67,-1.06v-0.07c0,0 -0.07,-0.14 -0.13,-0.07c-0.6,0.34 -1.27,0.27 -1.8,-0.13l-0.14,-0.07c-0.46,-0.4 -0.73,-1 -0.66,-1.53v-0.07c0,0 -0.07,-0.13 -0.14,-0.07c-0.6,0.27 -1.26,0.21 -1.8,-0.19l-0.13,-0.14c-0.47,-0.33 -0.73,-1 -0.6,-1.6v-0.13c-0.07,-0.07 -0.13,-0.07 -0.13,-0.07c-0.6,0.33 -1.34,0.27 -1.87,-0.13l-0.27,-0.13c-0.66,-0.54 -0.8,-1.6 -0.2,-2.34l1.34,-1.6c0.53,-0.66 1.46,-0.86 2.2,-0.46z"></path></g><defs><linearGradient id="linear_0" x1="49.999999999999645%" y1="-28.456687865951835%" x2="50%" y2="100%" gradientUnits="objectBoundingBox"><stop offset="0" stop-color="#FFF0E7" stop-opacity="1" /><stop offset="1" stop-color="#FE7D34" stop-opacity="1" /></linearGradient></defs></svg>