<svg xmlns="http://www.w3.org/2000/svg" xmlns:xlink="http://www.w3.org/1999/xlink" width="39" height="39" viewBox="0 0 39 39" fill="none"><g opacity="1"  transform="translate(0 0)  rotate(0)"><path id="矩形" fill-rule="evenodd" style="fill:#678EFE" opacity="0" d="M0 39L39 39L39 0L0 0L0 39Z"></path><path id="形状" fill-rule="evenodd" style="fill:#678EFE" opacity="1" d="M32.99,14.88l-0.02,0.14c2.05,1.16 3.43,3.24 3.43,5.64c0,2.53 -1.55,4.73 -3.85,5.84c-0.04,6.17 -5.23,11.2 -11.61,11.2c-0.71,0 -1.29,-0.59 -1.29,-1.32c0,-0.74 0.58,-1.33 1.29,-1.33c4.71,0 8.6,-3.45 9.02,-7.84c-0.23,0.02 -0.69,0.04 -0.69,0.04c-0.71,0 -1.28,-0.59 -1.28,-1.33v-10.53c0,-0.73 0.57,-1.32 1.28,-1.32c0.37,0 0.73,0.02 1.1,0.08c-0.39,-5.70001 -5.37,-10.22001 -11.43,-10.22001c-6.05,0 -10.99001,4.5 -11.41001,10.18001c0.28,-0.04 0.57,-0.06 0.88,-0.06c0.71,0 1.28,0.59 1.28,1.32v10.53c0,0.73 -0.57,1.33 -1.28,1.33c-3.93,0 -7.11,-2.95 -7.11,-6.59c0,-2.46 1.47,-4.61 3.64,-5.76c0,-7.48001 6.30001,-13.58001 14.03001,-13.58001c7.74,0 14.02,6.1 14.02,13.58001zM7.16654,16.8378c-1.9,0.49 -3.28,2 -3.28,3.8c0,1.8 1.4,3.33 3.28,3.8zM30.5756,24.4376c1.9,-0.47 3.28,-1.98 3.28,-3.78c0,-1.8 -1.38,-3.32 -3.28,-3.8z"></path></g></svg>