<svg xmlns="http://www.w3.org/2000/svg" xmlns:xlink="http://www.w3.org/1999/xlink" width="72" height="72" viewBox="0 0 72 72" fill="none"><g opacity="1"  transform="translate(0 0)  rotate(0)"><path id="椭圆形" fill-rule="evenodd" fill="url(#linear_0)" opacity="1" d="M72 36C72 16.12 55.88 0 36 0C16.12 0 0 16.12 0 36C0 55.88 16.12 72 36 72C55.88 72 72 55.88 72 36Z"></path><g id="矩形" filter="url(#filter_3)"><path id="矩形" fill-rule="evenodd" style="fill:#EA475F" opacity="0.87" d="M21 55.5L51 55.5L51 51L21 51L21 55.5Z"></path></g><g opacity="1"  transform="translate(19.68359375 18.515625)  rotate(0)"><g opacity="1"  transform="translate(0 0)  rotate(0)"><path id="形状" fill-rule="evenodd" fill="url(#linear_1)" opacity="1" d="M0,2.33c0,-1.28 1.05,-2.33 2.33,-2.33h23.31v34.96h-23.31c-1.28,0 -2.33,-1.05 -2.33,-2.33v-5.83h2.33c0.7,0 1.16,-0.46 1.16,-1.16c0,-0.7 -0.46,-1.16 -1.16,-1.16h-2.33v-5.84h2.33c0.7,0 1.16,-0.46 1.16,-1.16c0,-0.7 -0.46,-1.16 -1.16,-1.16h-2.33v-5.83h2.33c0.7,0 1.16,-0.47 1.16,-1.16c0,-0.7 -0.46,-1.17 -1.16,-1.17h-2.33zM30.2987,34.96h-2.3299v-34.96h2.3299c1.29,0 2.33,1.05 2.33,2.33v30.3c0,1.28 -1.0499,2.33 -2.33,2.33z"></path><path id="路径" fill-rule="evenodd" style="fill:#FFFFFF" opacity="1" d="M15.9163 25.3148L15.9163 22.9648L19.7062 22.9648C20.4062 22.9648 20.9463 22.4248 20.9463 21.7248C20.9463 21.0348 20.4062 20.4848 19.7062 20.4848L15.9163 20.4848L15.9163 18.6948L19.7062 18.6948C20.4062 18.6948 20.9463 18.1448 20.9463 17.4548C20.9463 16.7548 20.4062 16.2148 19.7062 16.2148L16.0462 16.2148L19.8763 12.3348L19.8862 12.3248C20.1162 12.1048 20.2463 11.8148 20.2563 11.4948C20.2663 11.1648 20.1362 10.8348 19.8862 10.5848C19.6862 10.3548 19.3662 10.2148 19.0163 10.2148C18.6763 10.2148 18.3962 10.3348 18.1462 10.5848L14.6763 14.0948L11.1763 10.6248L11.1763 10.6148C10.9662 10.3848 10.6462 10.2448 10.2963 10.2448C9.97625 10.2448 9.68625 10.3648 9.43625 10.6048C9.19625 10.8148 9.06625 11.1348 9.06625 11.4848C9.06625 11.8148 9.18625 12.1048 9.43625 12.3548L13.2962 16.2248L9.64625 16.2248C8.94625 16.2248 8.40625 16.7648 8.40625 17.4648C8.40625 18.1548 8.94625 18.6948 9.64625 18.6948L13.4363 18.6948L13.4363 20.4948L9.64625 20.4948C8.94625 20.4948 8.40625 21.0348 8.40625 21.7348C8.40625 22.4348 8.94625 22.9748 9.64625 22.9748L13.4363 22.9748L13.4363 25.3148C13.4363 26.0148 13.9762 26.5548 14.6763 26.5548C15.3562 26.5548 15.9163 26.0048 15.9163 25.3148Z"></path></g></g></g><defs><linearGradient id="linear_0" x1="50%" y1="0%" x2="51%" y2="100%" gradientUnits="objectBoundingBox"><stop offset="0" stop-color="#FFF9F9" stop-opacity="1" /><stop offset="1" stop-color="#FFECEC" stop-opacity="1" /></linearGradient><filter id="filter_3" x="13" y="43" width="46" height="20.5" filterUnits="userSpaceOnUse" color-interpolation-filters="sRGB"><feFlood flood-opacity="0" result="BackgroundImageFix"/>
          <feBlend mode="normal" in="SourceGraphic" in2="BackgroundImageFix" result="shape"/>
          <feGaussianBlur stdDeviation="4" result="effect1_foregroundBlur" /></filter><linearGradient id="linear_1" x1="50.00000000000071%" y1="-26.14514320712331%" x2="50%" y2="100%" gradientUnits="objectBoundingBox"><stop offset="0" stop-color="#FFBCC0" stop-opacity="1" /><stop offset="1" stop-color="#FB3F5B" stop-opacity="1" /></linearGradient></defs></svg>