<svg xmlns="http://www.w3.org/2000/svg" xmlns:xlink="http://www.w3.org/1999/xlink" width="72" height="72" viewBox="0 0 72 72" fill="none"><g opacity="1"  transform="translate(0 0)  rotate(0)"><path id="椭圆形" fill-rule="evenodd" fill="url(#linear_0)" opacity="1" d="M72 36C72 16.12 55.88 0 36 0C16.12 0 0 16.12 0 36C0 55.88 16.12 72 36 72C55.88 72 72 55.88 72 36Z"></path><g id="矩形" filter="url(#filter_3)"><path id="矩形" fill-rule="evenodd" style="fill:#FE823C" opacity="0.87" d="M21 55.5L51 55.5L51 51L21 51L21 55.5Z"></path></g><g opacity="1"  transform="translate(12 12)  rotate(0)"><path id="矩形" fill-rule="evenodd" style="fill:#000000" opacity="0" d="M0 48L48 48L48 0L0 0L0 48Z"></path><path id="形状" fill-rule="evenodd" fill="url(#linear_1)" opacity="1" d="M23.0768,22.1539c-0.92,-0.37 -1.48,-0.74 -1.85,-1.11c-0.37,-0.37 -0.55,-0.92 -0.55,-1.47c0,-0.56 0.18,-1.11 0.55,-1.48c0.37,-0.37 1.11,-0.56 1.85,-0.74zM24.9229,26.0308c0.92,0.37 1.66,0.55 2.03,0.92c0.37,0.37 0.55,0.93 0.55,1.48c0,1.29 -0.92,2.03 -2.58,2.22z"></path><path id="形状" fill-rule="evenodd" fill="url(#linear_2)" opacity="1" d="M24.0024,44.3123c-11.26,0 -20.31002,-9.05 -20.31002,-20.31c0,-11.26 9.05002,-20.31004 20.31002,-20.31004c11.26,0 20.31,9.05004 20.31,20.31004c0,11.26 -9.05,20.31 -20.31,20.31zM31.0194,28.2446c0,-1.11 -0.37,-2.21 -1.11,-2.95c-0.74,-0.74 -2.03,-1.48 -3.88,-2.22l-1.11,-0.37v-5.35c1.48,0.18 3.14,0.55 4.62,1.11l1.29,-2.59c-1.85,-0.74 -3.69,-1.29 -5.72,-1.29v-2.4h-2.03v2.4c-1.85,0.19 -3.14,0.74 -4.25,1.66c-1.11,0.92 -1.66,2.03 -1.66,3.33c0,1.29 0.37,2.21 1.11,3.13c0.74,0.93 1.84,1.66 3.5,2.22l1.3,0.37v5.54c-0.74,0 -1.85,0 -2.96,-0.37c-1.1,-0.37 -2.03,-0.74 -2.95,-1.11v3.14c1.48,0.74 3.51,1.11 5.91,1.11v3.13h2.03v-3.13c1.85,-0.19 3.32,-0.74 4.43,-1.67c0.92,-0.92 1.48,-2.21 1.48,-3.69z"></path></g></g><defs><linearGradient id="linear_0" x1="50%" y1="0%" x2="51%" y2="100%" gradientUnits="objectBoundingBox"><stop offset="0" stop-color="#FFF6F1" stop-opacity="1" /><stop offset="1" stop-color="#FFF0E7" stop-opacity="1" /></linearGradient><filter id="filter_3" x="13" y="43" width="46" height="20.5" filterUnits="userSpaceOnUse" color-interpolation-filters="sRGB"><feFlood flood-opacity="0" result="BackgroundImageFix"/>
          <feBlend mode="normal" in="SourceGraphic" in2="BackgroundImageFix" result="shape"/>
          <feGaussianBlur stdDeviation="4" result="effect1_foregroundBlur" /></filter><linearGradient id="linear_1" x1="49.999999999999645%" y1="-28.456687865951835%" x2="50%" y2="100%" gradientUnits="objectBoundingBox"><stop offset="0" stop-color="#FFF0E7" stop-opacity="1" /><stop offset="1" stop-color="#FE7D34" stop-opacity="1" /></linearGradient><linearGradient id="linear_2" x1="49.999999999999645%" y1="-28.456687865951835%" x2="50%" y2="100%" gradientUnits="objectBoundingBox"><stop offset="0" stop-color="#FFF0E7" stop-opacity="1" /><stop offset="1" stop-color="#FE7D34" stop-opacity="1" /></linearGradient></defs></svg>