<svg xmlns="http://www.w3.org/2000/svg" xmlns:xlink="http://www.w3.org/1999/xlink" width="40" height="40" viewBox="0 0 40 40" fill="none"><g opacity="1"  transform="translate(0 0)  rotate(0)"><path id="矩形" fill-rule="evenodd" style="fill:#000000" opacity="0" d="M0 40L40 40L40 0L0 0L0 40Z"></path><path id="形状" fill-rule="evenodd" fill="url(#linear_0)" opacity="1" d="M36.8148,16.2472c0.1,0.59 0.33,1.99 0.33,3.14c0,1.24 -0.24,2.59 -0.34,3.17c0,0 -0.02,0.11 -0.04,0.25c-0.26,1.39 -1.13,2.26 -2.5,2.26c-1.9,0 -3.46,1.55 -3.47,3.55c-0.06,0.62 0.3,1.36 0.3,1.36c0.54,1.22 0.11,2.77 -0.98,3.46l-4.29,2.38c-0.46,0.22 -0.86,0.37 -1.4,0.37c-0.8,0 -1.58,-0.32 -2.15,-0.88c-1.12,-1.13 -2.23,-1.83 -2.9,-1.83c-0.89,0 -2.24,1.17 -2.74,1.61l-0.15,0.13c-0.5,0.56 -1.28,0.89 -2.16,0.89c-0.4,0 -0.76,-0.12 -1.15,-0.25l-4.20002,-2.34c-1.15999,-0.78 -1.64999,-2.31 -1.12999,-3.51c0,0 0.28999,-0.84 0.28999,-1.29c0,-1.91 -1.55,-3.47 -3.54999,-3.47c-1.12,0 -2.02,-0.88 -2.35,-2.52c-0.1,-0.6 -0.33,-2 -0.33,-3.15c0,-1.15 0.24,-2.55 0.33,-3.15c0.02,-0.07 0.05,-0.27 0.05,-0.27c0.25,-1.39 1.12,-2.26 2.47999,-2.26c1.90001,0 3.46,-1.56 3.46,-3.47c0,-0.57002 -0.26999,-1.23002 -0.37,-1.45002c-0.53999,-1.23 -0.10999,-2.78 0.99001,-3.47l4.49001,-2.43c0.32,-0.1 0.67,-0.22 1.09,-0.22c0.81,0 1.59,0.33 2.15,0.89c0.67,0.66 2.02,1.64 2.82,1.64c0.8,0 2.15,-0.98 2.81,-1.64c0.54,-0.54 1.39,-0.89 2.15,-0.89c0.41,0 0.78,0.12 1.17,0.25l4.22,2.4c1.34,0.73 1.92,2.18 1.38,3.45c-0.09,0.22 -0.3,0.85 -0.3,1.29002c0,1.91 1.55,3.47 3.65,3.47c1.12,0 2.02,0.88 2.3,2.25zM14.0479,19.528c0,3.03 2.45,5.49 5.47,5.49c3.02,0 5.47,-2.46 5.47,-5.49c0,-3.03 -2.45,-5.49 -5.47,-5.49c-3.02,0 -5.47,2.46 -5.47,5.49z"></path></g><defs><linearGradient id="linear_0" x1="17.352736107264377%" y1="82.1617231964126%" x2="72.69045410220087%" y2="20.880408078299695%" gradientUnits="objectBoundingBox"><stop offset="0" stop-color="#3C71EE" stop-opacity="1" /><stop offset="1" stop-color="#87B8F8" stop-opacity="1" /></linearGradient></defs></svg>