<svg xmlns="http://www.w3.org/2000/svg" xmlns:xlink="http://www.w3.org/1999/xlink" width="72" height="73.5" viewBox="0 0 72 73.5" fill="none"><g opacity="1"  transform="translate(0 0)  rotate(0)"><path id="椭圆形" fill-rule="evenodd" fill="url(#linear_0)" opacity="1" d="M72 36C72 16.12 55.88 0 36 0C16.12 0 0 16.12 0 36C0 55.88 16.12 72 36 72C55.88 72 72 55.88 72 36Z"></path><g id="矩形" filter="url(#filter_3)"><path id="矩形" fill-rule="evenodd" style="fill:#FE823C" opacity="0.87" d="M22 57.5L52 57.5L52 53L22 53L22 57.5Z"></path></g><g opacity="1"  transform="translate(22 15)  rotate(0)"><path id="矩形" fill-rule="evenodd" style="fill:#000000" opacity="0" d="M0 36L36 36L36 0L0 0L0 36Z"></path><path id="形状结合" fill-rule="evenodd" fill="url(#linear_1)" opacity="1" d="M20.7498,2.53069v-2.45c6.73,0 12.2,5.74 12.2,12.80001h-2.34c0,-5.70001 -4.43,-10.35001 -9.86,-10.35001zM20.7498,6.88091v-2.45c4.44,0 8.06,3.79 8.06,8.44999h-2.35c0,-1.6 -0.6,-3.10999 -1.67,-4.23999c-1.08,-1.13 -2.52,-1.76 -4.04,-1.76zM17.8546,11.7232l-0.63,0.29c-3.51,-3.05995 -7.07,-4.41995 -8.51998,-3.06995c-1.72,1.60995 0.18,6.44995 4.24998,10.81995c4.07,4.36 8.77,6.6 10.49,4.99c1.34,-1.25 0.51,-4.42 -1.81,-7.81l0.27,-0.52l2.63,-0.84c2.73,4.28 3.71,8.98 1.27,11.42c-2.1395,2.1462 -6.6671,3.8719 -11.2915,3.0175v3.0761h6.9745v2.9h-14.52005v-2.9h4.64555v-3.9736c-1.4122,-0.6283 -2.78758,-1.547 -4.05848,-2.82c-6.25,-6.24 -4.29,-16.27 -1.04,-19.51995c2.62,-2.62 7.42998,-1.09 11.76998,2.17zM23.9998,11.186c0,0.94 -0.72,1.7 -1.62,1.7c-0.3737,0 -0.7181,-0.1311 -0.9931,-0.3516c0.2332,0.6312 0.1413,1.3731 -0.2904,1.9128l-2.82,3.44c-0.6,0.74 -1.65,0.79 -2.33,0.11l-0.32,-0.33c-0.68,-0.68 -0.63,-1.72 0.11,-2.33l3.44,-2.81c0.5335,-0.4431 1.2878,-0.5346 1.9227,-0.2893c-0.2187,-0.2892 -0.3492,-0.6545 -0.3492,-1.0519c0,-0.93 0.73,-1.70004 1.63,-1.70004c0.9,0 1.62,0.77004 1.62,1.70004z"></path></g></g><defs><linearGradient id="linear_0" x1="50%" y1="0%" x2="51%" y2="100%" gradientUnits="objectBoundingBox"><stop offset="0" stop-color="#FFF6F1" stop-opacity="1" /><stop offset="1" stop-color="#FFF0E7" stop-opacity="1" /></linearGradient><filter id="filter_3" x="14" y="45" width="46" height="20.5" filterUnits="userSpaceOnUse" color-interpolation-filters="sRGB"><feFlood flood-opacity="0" result="BackgroundImageFix"/>
          <feBlend mode="normal" in="SourceGraphic" in2="BackgroundImageFix" result="shape"/>
          <feGaussianBlur stdDeviation="4" result="effect1_foregroundBlur" /></filter><linearGradient id="linear_1" x1="49.999999999999645%" y1="-28.456687865951835%" x2="50%" y2="100%" gradientUnits="objectBoundingBox"><stop offset="0" stop-color="#FFF0E7" stop-opacity="1" /><stop offset="1" stop-color="#FE7D34" stop-opacity="1" /></linearGradient></defs></svg>