<svg xmlns="http://www.w3.org/2000/svg" xmlns:xlink="http://www.w3.org/1999/xlink" width="72" height="73.5" viewBox="0 0 72 73.5" fill="none"><g opacity="1"  transform="translate(0 0)  rotate(0)"><path id="椭圆形" fill-rule="evenodd" fill="url(#linear_0)" opacity="1" d="M72 36C72 16.12 55.88 0 36 0C16.12 0 0 16.12 0 36C0 55.88 16.12 72 36 72C55.88 72 72 55.88 72 36Z"></path><g id="矩形" filter="url(#filter_3)"><path id="矩形" fill-rule="evenodd" style="fill:#386DEE" opacity="0.56" d="M22 57.5L52 57.5L52 53L22 53L22 57.5Z"></path></g><g opacity="1"  transform="translate(20 21)  rotate(0)"><path id="矩形" fill-rule="evenodd" style="fill:#000000" opacity="0" d="M0 32L32 32L32 0L0 0L0 32Z"></path><path id="形状" fill-rule="evenodd" fill="url(#linear_1)" opacity="1" d="M32,11.1701c-0.03,1.32 -1.12,2.38 -2.44,2.37h-8.66c-1.33,0.01 -2.42,-1.05 -2.44,-2.37v-8.80003c0.02,-1.32 1.11,-2.38 2.44,-2.37h8.66c1.33,-0.01 2.42,1.05 2.44,2.37zM13.71,11.3154c-0.02,1.34 -1.12,2.41 -2.47,2.4h-8.77c-1.35,0.01 -2.45,-1.06 -2.47,-2.4v-8.90996c0.02,-1.34 1.13,-2.41 2.47,-2.4h8.77c1.35,-0.01 2.45,1.06 2.47,2.4zM13.71,29.5994c-0.03,1.34 -1.13,2.41 -2.47,2.4h-8.77c-1.34,0.01 -2.45,-1.06 -2.47,-2.4v-8.91c0.02,-1.34 1.12,-2.41 2.47,-2.4h8.77c1.35,-0.01 2.45,1.06 2.47,2.4zM32.0052,29.5994c-0.03,1.34 -1.13,2.41 -2.48,2.4h-8.77c-1.34,0.01 -2.45,-1.06 -2.47,-2.4v-8.91c0.02,-1.34 1.12,-2.41 2.47,-2.4h8.77c1.35,-0.01 2.45,1.06 2.48,2.4z"></path></g></g><defs><linearGradient id="linear_0" x1="50%" y1="0%" x2="51%" y2="100%" gradientUnits="objectBoundingBox"><stop offset="0" stop-color="#F7F9FF" stop-opacity="1" /><stop offset="1" stop-color="#ECF1FF" stop-opacity="1" /></linearGradient><filter id="filter_3" x="14" y="45" width="46" height="20.5" filterUnits="userSpaceOnUse" color-interpolation-filters="sRGB"><feFlood flood-opacity="0" result="BackgroundImageFix"/>
          <feBlend mode="normal" in="SourceGraphic" in2="BackgroundImageFix" result="shape"/>
          <feGaussianBlur stdDeviation="4" result="effect1_foregroundBlur" /></filter><linearGradient id="linear_1" x1="50%" y1="0%" x2="51%" y2="100%" gradientUnits="objectBoundingBox"><stop offset="0" stop-color="#8CBCF8" stop-opacity="1" /><stop offset="1" stop-color="#265CEB" stop-opacity="1" /></linearGradient></defs></svg>