<svg xmlns="http://www.w3.org/2000/svg" xmlns:xlink="http://www.w3.org/1999/xlink" width="72" height="74.5" viewBox="0 0 72 74.5" fill="none"><g opacity="1"  transform="translate(0 0)  rotate(0)"><path id="椭圆形" fill-rule="evenodd" fill="url(#linear_0)" opacity="1" d="M72 36C72 16.12 55.88 0 36 0C16.12 0 0 16.12 0 36C0 55.88 16.12 72 36 72C55.88 72 72 55.88 72 36Z"></path><g id="矩形" filter="url(#filter_3)"><path id="矩形" fill-rule="evenodd" style="fill:#24B67C" opacity="0.87" d="M21 58.5L51 58.5L51 54L21 54L21 58.5Z"></path></g><g opacity="1"  transform="translate(17.99951171875 18)  rotate(0)"><path id="矩形" fill-rule="evenodd" style="fill:#000000" opacity="0" d="M0.34668 35.65L35.9967 35.65L35.9967 0L0.34668 0L0.34668 35.65Z"></path><path id="形状" fill-rule="evenodd" fill="url(#linear_1)" opacity="1" d="M16.4905,22.56c-0.05,0.26 -0.18,0.6 -0.18,0.6c-0.07,0.14 -0.23,0.29 -0.49,0.46c-0.61,0.37 -1.27,0.68 -1.98,0.91c-0.7,0.24 -1.38,0.5 -2.03,0.78c-0.64,0.28 -1.21,0.66 -1.69,1.11c-0.48,0.46 -0.79,1.12 -0.9,1.96c-0.05,0.26 -0.08,0.51 -0.09,0.76c-0.01,0.25 -0.03,0.48 -0.05,0.69c0,0 -0.05,0.09 -0.07,0.12c-0.98395,0.0596 -1.90863,-0.0289 -2.84277,-0.1184l-0.01723,-0.0016c-0.94,-0.09 -1.81,-0.2 -2.6,-0.32c-0.79,-0.12 -1.45,-0.23 -1.99,-0.35c-0.54,-0.12 -0.88,-0.24 -1.03,-0.36c-0.21,-0.16 -0.37,-0.65 -0.47,-1.48c-0.11,-0.82 -0.07,-1.89 0.12,-3.21c0.12,-0.73 0.42,-1.29 0.9,-1.68c0.48,-0.38 1.05,-0.69 1.71,-0.91c0.66,-0.23 1.34,-0.43 2.03,-0.62c0.7,-0.19 1.31,-0.45 1.86,-0.78c0.42,-0.28 0.74,-0.54 0.97,-0.77c0.22,-0.24 0.38,-0.48 0.47,-0.73c0.1,-0.25 0.14,-0.5 0.14,-0.76c0,0 -0.01,-0.54 -0.03,-0.85c-0.05,-0.46 -0.21,-0.83 -0.48,-1.11c-0.27,-0.27 -0.57,-0.54 -0.9,-0.83c-0.19,-0.11 -0.34,-0.3 -0.47,-0.56c-0.13,-0.26 -0.25,-0.52 -0.34,-0.78c-0.09,-0.28 -0.19,-0.6 -0.28,-0.95c0,0 -0.28,-0.12 -0.43,-0.21c-0.11,-0.1 -0.24,-0.24 -0.37,-0.43c-0.13,-0.18 -0.25,-0.44 -0.37,-0.77c-0.11,-0.33 -0.16,-0.64 -0.14,-0.94c0.03,-0.29 0.09,-0.55 0.18,-0.76c0.09,-0.26 0.22,-0.47 0.39,-0.63c-0.03,-0.76 0.01,-1.52 0.1,-2.3c0.1,-0.63 0.25,-1.31 0.46,-2.05c0.21,-0.73 0.53,-1.38 0.95,-1.97c0.38,-0.57 0.81,-1.03 1.28,-1.38c0.47,-0.35 0.94,-0.63 1.43,-0.83c0.48,-0.2 0.97,-0.33 1.46,-0.4c0.49,-0.07 0.98,-0.11 1.45,-0.11c1.17,0 2.23,0.25 3.18,0.74c0.94,0.5 1.64,1.03 2.11,1.59c0.31,0.4 0.5,0.77 0.58,1.11c0.09,0.34 0.2,0.74 0.34,1.19c-0.45,0.25 -0.92,0.64 -1.43,1.14c-0.5,0.51 -0.95,1.02 -1.32,1.54c-0.47,0.66 -0.83,1.39 -1.06,2.19c-0.24,0.8 -0.41,1.54 -0.53,2.22c-0.12,0.82 -0.18,1.65 -0.18,2.47c-0.19,0.21 -0.33,0.45 -0.42,0.71c0,0 -0.15,0.51 -0.18,0.83c-0.02,0.32 0.03,0.66 0.14,1.04c0.12,0.4 0.25,0.7 0.39,0.91c0.14,0.22 0.27,0.38 0.39,0.5c0.14,0.14 0.42,0.28 0.42,0.28c0.1,0.38 0.19,0.73 0.29,1.06c0.09,0.29 0.2,0.57 0.33,0.87c0.13,0.29 0.29,0.51 0.48,0.65c0.16,0.14 0.29,0.26 0.39,0.35c0,0 0.17,0.18 0.23,0.27l0.1,0.33c0.01,0.14 0.04,0.33 0.09,0.57zM35.3037,29.0517c0.1,0.33 0.17,0.73 0.23,1.2c0.06,0.47 0.09,0.95 0.09,1.43c0,0.48 -0.04,0.94 -0.11,1.36c-0.07,0.42 -0.17,0.74 -0.31,0.95c0,0 -0.38,0.29 -0.83,0.43c-0.46,0.14 -1.03,0.27 -1.71,0.38c-0.69,0.12 -1.44,0.23 -2.26,0.34c-0.83,0.1 -1.66,0.2 -2.49,0.26c-0.84,0.08 -1.65,0.13 -2.42,0.18c-0.78,0.05 -1.46,0.07 -2.05,0.07c-0.59,0 -1.26,-0.02 -2.03,-0.07c-0.76,-0.05 -1.56,-0.1 -2.38,-0.18c-0.83,-0.06 -1.64,-0.14 -2.44,-0.22c-0.8,-0.09 -1.53,-0.18 -2.2,-0.29c-0.68,-0.1 -1.24,-0.21 -1.7,-0.32c-0.46,-0.1 -0.75,-0.2 -0.86,-0.29c-0.19,-0.17 -0.35,-0.66 -0.46,-1.49c-0.12,-0.82 -0.08,-1.88 0.1,-3.17c0.12,-0.76 0.42,-1.32 0.9,-1.7c0.49,-0.37 1.06,-0.68 1.72,-0.91c0.66,-0.24 1.33,-0.45 2.03,-0.62c0.69,-0.18 1.31,-0.44 1.85,-0.8c0.42,-0.28 0.75,-0.54 0.97,-0.78c0.22,-0.23 0.39,-0.47 0.49,-0.7c0.11,-0.24 0.16,-0.48 0.16,-0.74c0,-0.26 -0.01,-0.55 -0.03,-0.89c-0.05,-0.47 -0.22,-0.84 -0.5,-1.11c-0.28,-0.27 -0.59,-0.53 -0.91,-0.79c-0.17,-0.14 -0.32,-0.34 -0.45,-0.6c-0.13,-0.26 -0.24,-0.52 -0.33,-0.78c0,0 -0.19,-0.6 -0.28,-0.95c-0.15,-0.05 -0.29,-0.12 -0.43,-0.21c-0.11,-0.1 -0.24,-0.24 -0.37,-0.43c-0.13,-0.18 -0.25,-0.44 -0.37,-0.77c-0.12,-0.33 -0.16,-0.64 -0.14,-0.94c0.02,-0.29 0.08,-0.53 0.18,-0.72c0.09,-0.24 0.22,-0.45 0.39,-0.64c-0.03,-0.75 0.01,-1.52 0.1,-2.29c0.1,-0.66 0.24,-1.35 0.44,-2.07c0.2,-0.71002 0.51,-1.38002 0.94,-1.99002c0.37,-0.57 0.8,-1.03 1.27,-1.38c0.47,-0.35 0.95,-0.63 1.45,-0.83c0.49,-0.2 0.98,-0.33 1.48,-0.4c0.49,-0.07 0.96,-0.11 1.41,-0.11c1.2,0 2.27,0.25 3.21,0.74c0.94,0.49 1.64,1.03 2.08,1.59c0.52,0.63 0.91,1.35 1.15,2.14c0.25,0.78002 0.43,1.52002 0.55,2.20002c0.12,0.8 0.17,1.6 0.14,2.4c0.12,0.1 0.22,0.23 0.32,0.39c0.07,0.14 0.14,0.33 0.19,0.55c0.06,0.22 0.07,0.5 0.02,0.83c-0.05,0.42 -0.14,0.76 -0.28,1.02c-0.14,0.26 -0.42,0.6 -0.42,0.6c-0.17,0.17 -0.36,0.27 -0.57,0.32c-0.09,0.35 -0.28,0.95 -0.28,0.95c-0.1,0.26 -0.21,0.52 -0.36,0.78c-0.14,0.26 -0.46,0.56 -0.46,0.56c-0.18,0.17 -0.51,0.43 -0.51,0.43c-0.15,0.11 -0.29,0.24 -0.4,0.37c-0.12,0.13 -0.22,0.27 -0.3,0.44c-0.08,0.16 -0.15,0.36 -0.2,0.6c-0.04,0.31 -0.06,0.62 -0.05,0.93c0.01,0.32 0.09,0.63 0.23,0.94c0.14,0.31 0.37,0.6 0.69,0.88c0.32,0.28 0.76,0.53 1.32,0.74c0.5,0.21 1.04,0.4 1.64,0.55c0.61,0.15 1.18,0.34 1.73,0.55c0.56,0.21 1.05,0.48 1.49,0.81c0.43,0.33 0.74,0.75 0.93,1.27z"></path></g></g><defs><linearGradient id="linear_0" x1="50%" y1="0%" x2="51%" y2="100%" gradientUnits="objectBoundingBox"><stop offset="0" stop-color="#EBFFF2" stop-opacity="1" /><stop offset="1" stop-color="#D9FEE7" stop-opacity="1" /></linearGradient><filter id="filter_3" x="13" y="46" width="46" height="20.5" filterUnits="userSpaceOnUse" color-interpolation-filters="sRGB"><feFlood flood-opacity="0" result="BackgroundImageFix"/>
          <feBlend mode="normal" in="SourceGraphic" in2="BackgroundImageFix" result="shape"/>
          <feGaussianBlur stdDeviation="4" result="effect1_foregroundBlur" /></filter><linearGradient id="linear_1" x1="50%" y1="0%" x2="51%" y2="100%" gradientUnits="objectBoundingBox"><stop offset="0" stop-color="#97FAC7" stop-opacity="1" /><stop offset="1" stop-color="#15C884" stop-opacity="1" /></linearGradient></defs></svg>